<?xml version="1.0" encoding="UTF-8" standalone="no"?>
<svg
   xmlns:dc="http://purl.org/dc/elements/1.1/"
   xmlns:cc="http://creativecommons.org/ns#"
   xmlns:rdf="http://www.w3.org/1999/02/22-rdf-syntax-ns#"
   xmlns:svg="http://www.w3.org/2000/svg"
   xmlns="http://www.w3.org/2000/svg"
   xmlns:sodipodi="http://sodipodi.sourceforge.net/DTD/sodipodi-0.dtd"
   xmlns:inkscape="http://www.inkscape.org/namespaces/inkscape"
   version="1.0"
   width="377.02133"
   height="377.02133"
   viewBox="0 0 301.61707 301.61707"
   preserveAspectRatio="xMidYMid meet"
   id="svg2"
   inkscape:version="0.48.5 r10040"
   sodipodi:docname="paw.svg">
  <defs
     id="defs26" />
  <sodipodi:namedview
     pagecolor="#ffffff"
     bordercolor="#666666"
     borderopacity="1"
     objecttolerance="10"
     gridtolerance="10"
     guidetolerance="10"
     inkscape:pageopacity="0"
     inkscape:pageshadow="2"
     inkscape:window-width="1280"
     inkscape:window-height="727"
     id="namedview24"
     showgrid="false"
     inkscape:zoom="0.79941174"
     inkscape:cx="-78.365768"
     inkscape:cy="183.31966"
     inkscape:window-x="0"
     inkscape:window-y="25"
     inkscape:window-maximized="1"
     inkscape:current-layer="svg2"
     borderlayer="false"
     fit-margin-top="0"
     fit-margin-left="0"
     fit-margin-right="0"
     fit-margin-bottom="0" />
  <metadata
     id="metadata4">
Created by potrace 1.15, written by Peter Selinger 2001-2017
<rdf:RDF>
  <cc:Work
     rdf:about="">
    <dc:format>image/svg+xml</dc:format>
    <dc:type
       rdf:resource="http://purl.org/dc/dcmitype/StillImage" />
  </cc:Work>
</rdf:RDF>
</metadata>
  <path
     sodipodi:type="arc"
     style="fill:#0d64e6;fill-opacity:1;stroke:#000000;stroke-width:8;stroke-miterlimit:4;stroke-dasharray:none"
     id="path3803"
     sodipodi:cx="217.03459"
     sodipodi:cy="220.48013"
     sodipodi:rx="204.52539"
     sodipodi:ry="204.52539"
     d="m 421.55998,220.48013 a 204.52539,204.52539 0 1 1 -409.050779,0 204.52539,204.52539 0 1 1 409.050779,0 z"
     transform="matrix(0.72321427,0,0,0.72321427,-6.1539756,-8.6458403)" />
  <path
     style="fill:#000000;stroke:none"
     inkscape:connector-curvature="0"
     id="path8"
     d="m 133.66216,36.755603 c -4.92844,3.257786 -11.27695,10.692219 -14.03354,16.455994 -2.75658,5.763773 -4.17664,11.945212 -2.92365,12.697009 0.41766,0.250599 2.42245,-0.334132 4.42724,-1.252995 2.17187,-1.002395 6.34852,-1.921258 9.77337,-2.088323 l 6.01437,-0.501199 -0.0835,-8.854492 c 0,-5.847308 0.41767,-10.441621 1.33653,-13.365274 0.75179,-2.505989 1.33653,-4.677846 1.33653,-4.844911 0,-0.835331 -3.34132,0.167065 -5.84731,1.754191 z"
     sodipodi:nodetypes="csscccccscc" />
  <path
     style="fill:#000000;stroke:none"
     inkscape:connector-curvature="0"
     id="path10"
     d="m 162.31397,35.920274 c 1.83772,4.844911 2.58952,9.60629 2.50598,17.291323 l -0.0835,8.854492 5.93084,0.501199 c 3.42485,0.167065 7.6015,1.085928 9.77335,2.088323 2.0048,0.918863 4.00959,1.503594 4.42726,1.252995 1.16945,-0.751797 -0.0835,-6.599104 -2.67306,-12.362878 -2.58952,-5.596709 -8.26976,-12.362878 -13.78294,-16.455993 -3.50839,-2.505989 -6.8497,-3.174252 -6.0979,-1.169461 z"
     sodipodi:nodetypes="cccccccccc" />
  <path
     style="fill:#000000;stroke:none"
     inkscape:connector-curvature="0"
     id="path12"
     d="m 170.33835,65.658007 c -0.66391,0.0049 -1.31538,0.129425 -1.9578,0.287144 -0.67688,0.184661 -1.37903,0.307248 -2.01002,0.626497 -0.70235,0.256749 -1.3551,0.624467 -1.98226,1.028234 -0.67289,0.38919 -1.2444,0.919581 -1.82893,1.425547 -0.43676,0.544459 -0.99397,1.000889 -1.3313,1.618452 -0.22043,0.649046 -0.41455,1.305667 -0.57833,1.971775 -0.25034,0.994896 -0.51666,1.987445 -0.71665,2.99375 -0.2398,1.422066 -0.52919,2.837814 -0.66282,4.275307 -0.18764,1.59223 -0.37143,3.184863 -0.51015,4.78224 -0.139,1.47785 -0.19804,2.96203 -0.3027,4.4426 -0.15948,3.00435 -0.31088,6.00927 -0.46205,9.01407 -0.12379,2.601227 -0.2216,5.203657 -0.34456,7.804847 -0.11929,1.8276 -0.13138,3.65966 -0.18172,5.48993 0.0111,1.59487 -0.0124,3.1894 -0.0494,4.7838 0.002,1.51511 -0.0181,3.03073 0.0121,4.54559 0.036,1.29357 0.0435,2.58833 0.14173,3.87926 0.0597,1.34545 0.0959,2.69267 0.17012,4.03702 0.0948,0.91007 0.19918,1.81884 0.35633,2.72058 0.10806,0.69673 0.25701,1.40325 0.56992,2.03946 0.3532,0.5397 0.82233,1.00229 1.32229,1.40763 0.53642,0.43493 1.15669,0.75593 1.73674,1.12689 1.0307,0.52511 2.02852,1.11275 3.05789,1.64098 1.32697,0.71144 2.66492,1.40392 3.98453,2.12812 8.79954,3.75475 10.82602,5.90722 19.85743,7.21933 0.62467,0.33831 4.73932,0.17998 6.2538,-2.00085 1.72511,-1.39172 3.98198,-5.62648 4.1139,-6.59326 0.83244,-2.88421 1.50182,-4.59969 1.79416,-8.15511 0.0976,-1.4489 0.73836,-4.89799 0.8506,-6.34548 0.0206,-1.03709 0.14412,-2.0689 0.15756,-3.10635 0.09,-2.07324 0.16582,-4.14702 0.22992,-6.22123 -0.0529,-1.73436 -0.19276,-3.46416 -0.31324,-5.1947 -0.21648,-1.52668 -0.38051,-3.06241 -0.66831,-4.57786 -0.24319,-1.18959 -0.43101,-2.39422 -0.80132,-3.55345 -0.51957,-1.867377 -1.14354,-3.705017 -1.86123,-5.505387 -0.32601,-0.90649 -0.67871,-1.80386 -1.04944,-2.69276 -0.3249,-0.73903 -0.63898,-1.48259 -1.00423,-2.20309 -0.43961,-0.96556 -0.99499,-1.87131 -1.46001,-2.82394 -0.65045,-1.25743 -1.38161,-2.4705 -2.1247,-3.67452 -0.95207,-1.433735 -1.87463,-2.887657 -2.882,-4.283839 -0.55934,-0.815172 -1.14132,-1.613782 -1.7491,-2.393543 -0.76931,-0.994571 -1.50765,-2.015462 -2.32862,-2.96836 -0.94928,-0.98724 -1.85255,-2.017142 -2.78764,-3.017497 -0.89289,-0.849538 -1.82854,-1.651889 -2.74093,-2.479885 -0.79607,-0.596032 -1.62768,-1.143939 -2.48358,-1.649243 -0.62074,-0.339834 -1.28368,-0.592473 -1.92801,-0.88285 -0.67757,-0.239042 -1.3477,-0.517355 -2.06222,-0.626497 -0.68109,-0.189381 -1.38672,-0.268232 -2.08832,-0.339352 -0.45311,-0.02796 -0.90422,-0.02757 -1.35741,0 z m -42.91505,0.365456 c -1.00473,0.32566 -1.97194,0.752085 -2.94977,1.148579 -1.15628,0.586516 -2.27723,1.248163 -3.31322,2.029924 -0.56464,0.427002 -1.15805,0.820596 -1.68473,1.294727 -1.19707,1.035077 -2.29194,2.182255 -3.31186,3.391071 -0.90575,1.067017 -1.84084,2.112217 -2.66097,3.248062 -0.58993,0.792221 -1.14891,1.607025 -1.66606,2.448725 -0.7394,1.172169 -1.49405,2.33522 -2.22404,3.513019 -0.59863,1.079123 -1.21578,2.147603 -1.8457,3.208743 -0.57058,1.22077 -1.24079,2.39068 -1.8795,3.57625 -0.30759,0.70706 -0.63923,1.4027 -0.99195,2.08832 -0.62638,1.41939 -1.24527,2.84493 -1.72308,4.3227 -0.25918,0.81562 -0.59051,1.60772 -0.79863,2.43905 -0.25059,0.76434 -0.49103,1.532297 -0.69398,2.311147 -0.41224,1.4957 -0.79408,2.99986 -1.17252,4.50434 -0.17932,0.83312 -0.42076,1.65448 -0.519354,2.50286 -0.14502,0.83948 -0.28918,1.68043 -0.33936,2.53209 -0.0688,0.89931 -0.22363,1.78916 -0.28714,2.68872 -0.0203,0.8125 -0.11045,1.62498 -0.0539,2.43761 0.0392,1.14488 0.16276,2.2849 0.24878,3.42684 0.0613,0.72707 0.14546,1.45089 0.29684,2.16527 0.240724,1.38728 0.592334,2.75319 0.970114,4.10866 0.34695,1.04155 0.74306,2.06668 1.14568,3.08763 0.37084,0.78031 0.63661,1.60421 1.00356,2.38614 0.52636,1.12635 0.98406,2.29101 1.64168,3.35041 0.51496,0.86316 1.03718,1.72315 1.59624,2.55806 0.48672,0.84987 1.12954,1.59763 1.77104,2.33276 0.50365,0.54586 1.06162,1.04426 1.66496,1.47756 0.58638,0.39792 1.22929,0.70285 1.9056,0.91365 0.69887,0.25267 1.41001,0.46135 2.14053,0.60039 0.68123,0.17387 1.38292,0.19133 2.0788,0.25515 1.00066,0.10973 2.00642,0.17772 3.01355,0.16251 1.19141,0.008 2.38263,0.0379 3.57419,0.026 0.90461,-0.0906 1.80841,-0.18981 2.71482,-0.26104 1.37661,-0.25242 2.76302,-0.45297 4.13854,-0.70834 0.66656,-0.17263 1.33543,-0.352 1.96981,-0.62296 0.74434,-0.24493 1.49031,-0.48541 2.21076,-0.79556 0.79565,-0.29441 1.5133,-0.75423 2.25303,-1.16225 0.66172,-0.48157 1.33826,-0.94432 1.94991,-1.49035 0.56525,-0.44005 1.03336,-0.97861 1.5181,-1.50141 0.47208,-0.54695 0.94774,-1.09707 1.31384,-1.72314 0.59196,-0.89797 1.05235,-1.87213 1.48312,-2.85527 0.3759,-1.00499 0.64902,-2.04538 0.9174,-3.08318 0.18656,-0.68938 0.3177,-1.38801 0.35812,-2.10178 0.027,-0.68803 0.1598,-1.3652 0.15045,-2.0564 0.0208,-1.01719 0.1762,-2.02636 0.17418,-3.04459 0.0673,-3.77948 0.20255,-7.5573 0.27391,-11.3367 0.0514,-1.65868 0.0254,-3.31821 0.0316,-4.97738 -0.049,-0.89943 -0.1334,-1.79785 -0.15662,-2.69811 0.0134,-0.99565 -0.0969,-1.98843 -0.082,-2.984157 -0.0183,-0.90294 -0.0984,-1.80307 -0.10812,-2.70641 -0.0719,-2.20661 -0.24352,-4.40842 -0.36701,-6.61246 -0.1523,-2.30669 -0.42085,-4.60346 -0.61576,-6.906655 -0.13618,-1.538395 -0.36987,-3.065944 -0.58915,-4.594041 -0.19487,-1.222622 -0.38234,-2.448098 -0.69173,-3.64834 -0.18796,-0.93322 -0.47378,-1.84176 -0.78312,-2.740924 -0.28653,-0.603844 -0.51931,-1.236367 -0.87426,-1.804702 -0.53449,-0.728889 -1.10212,-1.45904 -1.8387,-1.994543 -0.54089,-0.339493 -1.04769,-0.740722 -1.64642,-0.977797 -0.56705,-0.277807 -1.17391,-0.460074 -1.79328,-0.576425 -0.78249,-0.169054 -1.56376,-0.368677 -2.36505,-0.419896 -0.87687,-0.09782 -1.75783,-0.141018 -2.63992,-0.148359 -0.61323,0.0031 -1.23117,-0.06712 -1.84219,-0.004 z m 7.09716,80.848997 c -1.00104,0.46421 -2.18259,1.89937 -3.1341,2.46327 -0.58171,0.28839 -1.07655,0.7071 -1.50929,1.18653 -0.64256,0.63629 -1.26328,1.29564 -1.82112,2.00819 -1.06258,1.28634 -2.12007,2.57676 -3.14379,3.89437 -1.50072,1.91615 -3.0518,3.79247 -4.52502,5.73015 -0.83456,1.11753 -1.75708,2.16422 -2.64936,3.23519 -0.86777,1.01186 -1.71139,2.04512 -2.63302,3.00922 -1.40025,1.5263 -2.80846,3.04573 -4.2722,4.51167 -1.05074,1.05181 -2.06029,2.1447 -3.14834,3.15873 -4.35963,4.15343 -8.726234,8.29966 -13.065554,12.47432 -2.88028,2.81692 -5.74966,5.64497 -8.6225,8.46948 -1.17725,1.27768 -2.31105,2.59459 -3.49795,3.8634 -0.89083,1.0313 -1.74966,2.10084 -2.42456,3.28876 -0.35951,0.58674 -0.6859,1.19488 -0.9412,1.83443 -0.28078,0.66181 -0.638128,1.29592 -0.839279,1.98837 -0.193608,0.66507 -0.474422,1.30313 -0.600293,1.98708 -0.141726,0.68006 -0.356537,1.34039 -0.530464,2.01178 -0.186702,0.66823 -0.304687,1.35178 -0.468921,2.02521 -0.195417,0.98253 -0.317481,1.97901 -0.460251,2.97057 -0.08814,0.81982 -0.185714,1.63891 -0.203668,2.46411 -0.09115,1.76665 -0.15081,3.54307 0.03908,5.30557 0.12053,1.34894 0.241256,2.70048 0.506618,4.03031 0.232127,1.30621 0.440841,2.62323 0.866658,3.88394 0.376196,1.26069 0.799313,2.50661 1.23705,3.74696 0.27948,0.67577 0.49675,1.3809 0.82985,2.0323 0.36848,0.70111 0.6727,1.43529 1.04223,2.1352 0.38665,0.66274 0.78582,1.3177 1.23079,1.94334 0.40023,0.64626 0.91161,1.20857 1.39381,1.79291 0.59965,0.69272 1.13158,1.45251 1.84231,2.03995 0.71428,0.63158 1.48157,1.19947 2.20508,1.81974 0.56918,0.39291 1.19626,0.69153 1.77508,1.07028 0.93122,0.51589 1.88867,0.98803 2.87962,1.37871 0.60871,0.27631 1.26699,0.41466 1.89742,0.63129 0.69622,0.19452 1.38757,0.4097 2.10386,0.51905 1.22423,0.24005 2.46299,0.40821 3.70861,0.48228 0.711394,0.083 1.426384,0.0664 2.140774,0.0745 1.03926,0.0649 2.07828,-0.0449 3.11487,-0.10996 2.65978,-0.28321 5.31426,-0.61848 7.9551,-1.04498 2.37051,-0.38994 4.74288,-0.76963 7.11222,-1.16624 6.51409,-1.20453 13.02611,-2.42017 19.53572,-3.64865 1.21604,-0.22128 2.42738,-0.471 3.64633,-0.67459 1.25541,-0.16715 2.50509,-0.37091 3.75205,-0.59195 0.80061,-0.14173 1.60559,-0.26361 2.41905,-0.29527 1.29241,-0.0774 2.57709,-0.26739 3.87374,-0.27581 0.73695,-0.007 1.47187,-0.18093 2.20826,-0.0705 0.72515,0.0678 1.45603,0.0723 2.1755,0.19778 1.2039,0.17146 2.39984,0.39329 3.60236,0.57428 1.51932,0.24885 3.0024,0.67047 4.51457,0.95513 2.88592,0.56976 5.75756,1.20883 8.63728,1.80886 3.53586,0.75087 7.06756,1.52219 10.59226,2.32341 2.20559,0.41814 4.40173,0.88641 6.61603,1.25762 0.66561,0.14254 1.34583,0.17818 2.0157,0.29468 1.06856,0.16289 2.14482,0.27317 3.22116,0.36958 0.74861,0.0601 1.49974,0.0849 2.24543,0.17386 0.96623,0.0561 1.93325,8.2e-4 2.89757,-0.0606 0.94673,-0.0114 1.88604,-0.1438 2.82766,-0.23111 0.70726,-0.0846 1.38226,-0.33283 2.09127,-0.40852 0.65203,-0.0769 1.26486,-0.32564 1.88651,-0.52192 1.03713,-0.38619 2.0604,-0.81017 3.07031,-1.26231 0.81922,-0.43049 1.58067,-0.96071 2.34199,-1.48383 0.8496,-0.64675 1.70469,-1.29517 2.44124,-2.0725 0.54048,-0.59218 1.07556,-1.19214 1.5795,-1.81563 0.70832,-0.98907 1.43208,-1.96873 2.10506,-2.98201 0.91681,-1.50379 1.6706,-3.09745 2.42031,-4.68875 0.3315,-0.63089 0.47462,-1.33711 0.71338,-2.0051 0.20493,-0.68868 0.49298,-1.35014 0.64797,-2.05361 0.3407,-1.27057 0.69388,-2.53939 0.9331,-3.83402 0.43542,-1.92729 0.50386,-3.90992 0.6526,-5.8734 0.0287,-0.78031 0.0892,-1.56056 0.0991,-2.3409 -0.0412,-1.19512 -0.12059,-2.38879 -0.26922,-3.57562 -0.0662,-0.75496 -0.19225,-1.50178 -0.29302,-2.25226 -0.11893,-0.9841 -0.3481,-1.95188 -0.58787,-2.91256 -0.20017,-0.69196 -0.38557,-1.39027 -0.628,-2.06862 -0.29342,-0.75159 -0.56588,-1.51077 -0.83532,-2.27105 -0.32203,-0.87533 -0.72533,-1.71769 -1.11414,-2.56469 -0.40348,-0.68251 -0.78837,-1.37658 -1.19024,-2.05944 -0.54045,-0.83403 -1.1748,-1.60164 -1.75952,-2.40435 -0.75042,-0.97877 -1.5845,-1.88789 -2.4293,-2.78509 -1.14547,-1.21801 -2.35456,-2.37416 -3.52861,-3.56438 -1.9634,-1.95949 -3.98664,-3.85785 -5.97892,-5.78779 -3.48469,-3.37439 -6.95774,-6.76093 -10.40489,-10.17368 -2.70097,-2.67286 -5.38201,-5.36566 -8.05924,-8.06228 -1.03618,-1.06642 -2.02018,-2.18269 -3.04329,-3.2618 -1.09075,-1.15874 -2.13035,-2.36429 -3.20583,-3.53715 -1.04699,-1.19011 -2.11747,-2.35992 -3.15729,-3.55602 -3.02807,-3.66835 -7.2123,-6.76705 -10.23995,-10.43574 -8.7863,-7.75219 -25.46979,-7.26364 -34.42852,-2.63175 z"
     sodipodi:nodetypes="cccccccccccccccccccccccccccccccccccccccccccccccccccccccccccccccccccccccccccccccccccccccccccccccccccccccccccccccccccccccccccccccccccccccccccccccccccccccccccccccccccccccccccccccccccccccccccccccccccccccccc" />
  <path
     style="fill:#000000;stroke:none"
     inkscape:connector-curvature="0"
     id="path14"
     d="m 78.697466,72.340643 c -4.92844,3.007187 -12.446406,11.36048 -15.119461,16.79012 -2.84012,5.93085 -5.763774,16.205397 -4.844912,17.124257 0.334132,0.33414 2.840121,-0.41766 5.513176,-1.75419 4.594313,-2.17186 5.513175,-2.33893 11.360482,-1.83773 l 6.432035,0.58474 -0.75179,-4.427257 c -0.91887,-5.76376 -0.7518,-21.467962 0.25059,-22.136225 0.83534,-0.668264 1.08593,-4.761379 0.33414,-5.513176 -0.2506,-0.250599 -1.67066,0.250599 -3.17425,1.169461 z"
     sodipodi:nodetypes="ccscccccsc" />
  <path
     style="fill:#000000;stroke:none"
     inkscape:connector-curvature="0"
     id="path16"
     d="m 219.53405,71.087649 c -0.25061,0.250599 0.16706,3.174252 0.75179,6.515571 1.16946,5.680241 1.00239,15.704193 -0.2506,22.88803 l -0.50119,2.75659 6.59909,-0.58474 c 6.01438,-0.41766 6.93324,-0.25059 10.85929,1.7542 2.42246,1.16946 4.76138,2.17186 5.26258,2.17186 1.42006,0 1.00239,-3.59193 -1.16947,-9.940427 -2.75658,-8.18623 -5.76377,-13.105028 -11.69461,-18.868801 -2.17413,-2.360593 -5.45247,-5.229777 -7.01039,-6.338859 -0.95418,-0.632958 -2.0947,-1.021687 -2.84649,-0.353424 z"
     sodipodi:nodetypes="ccccccscccc" />
  <path
     style="fill:#000000;stroke:none"
     inkscape:connector-curvature="0"
     id="path18"
     d="m 65.582796,108.84454 c -1.336527,0.66827 -3.424851,2.08833 -4.510779,3.09073 -2.840121,2.50598 -8.938027,12.02874 -10.942818,17.12425 -0.918862,2.33892 -2.171857,5.17904 -2.756587,6.18144 -0.83533,1.253 -1.169462,4.67785 -1.085929,11.02635 0.08353,8.93802 0.167066,9.52276 3.174252,15.62066 2.338923,4.67785 4.594313,7.68503 8.770961,11.52755 6.682637,6.26497 10.775751,8.3533 16.957191,8.3533 5.596709,0 11.276939,-2.92366 16.455989,-8.6039 5.76378,-6.26497 7.3509,-10.02395 7.26737,-17.70899 0,-8.18623 -2.33893,-15.53712 -9.52275,-30.1554 -3.84252,-7.76856 -6.01438,-11.02634 -9.18863,-14.03353 -3.758985,-3.50839 -4.510782,-3.84252 -8.102699,-3.84252 -2.171856,0.0835 -5.09551,0.66827 -6.515571,1.42006 z"
     sodipodi:nodetypes="cccccccscccccc" />
  <path
     style="fill:#000000;stroke:none"
     inkscape:connector-curvature="0"
     id="path20"
     d="m 220.9541,111.76819 c -3.84251,4.09312 -9.94042,14.45121 -12.9476,22.38684 -0.66827,1.58713 -1.7542,3.84252 -2.58953,5.01198 -1.75419,2.67305 -3.67544,15.45359 -2.92365,20.04791 1.75419,11.27694 13.95,22.5539 24.22455,22.5539 6.09791,-0.0835 10.69223,-2.506 17.54193,-9.43923 6.51557,-6.51557 9.94042,-12.52994 10.94282,-19.21258 0.15335,-11.98659 0.67408,-11.22906 -3.25779,-22.72096 -6.3485,-15.53713 -13.69941,-22.97157 -22.8045,-22.97157 -3.67545,0 -4.17664,0.33413 -8.18623,4.34371 z"
     sodipodi:nodetypes="ccccccccsc" />
</svg>
